# Blender 3.4.1
# www.blender.org
o Cylinder
v 1.000000 0.000000 0.000000
v 0.000000 -0.000000 0.000000
v 0.980785 -0.195090 0.000000
v 0.923880 -0.382683 0.000000
v 0.831470 -0.555570 0.000000
v 0.707107 -0.707107 0.000000
v 0.555570 -0.831470 0.000000
v 0.382683 -0.923880 0.000000
v 0.195090 -0.980785 0.000000
v 0.000000 -1.000000 0.000000
v -0.195090 -0.980785 0.000000
v -0.382683 -0.923880 0.000000
v -0.555570 -0.831470 0.000000
v -0.707107 -0.707107 0.000000
v -0.831470 -0.555570 0.000000
v -0.923880 -0.382683 0.000000
v -0.980785 -0.195090 0.000000
v -1.000000 0.000000 0.000000
v -0.980785 0.195090 0.000000
v -0.923880 0.382683 0.000000
v -0.831470 0.555570 0.000000
v -0.707107 0.707107 0.000000
v -0.555570 0.831470 0.000000
v -0.382683 0.923880 0.000000
v -0.195090 0.980785 0.000000
v 0.000000 1.000000 0.000000
v 0.195090 0.980785 0.000000
v 0.382683 0.923880 0.000000
v 0.555570 0.831470 0.000000
v 0.707107 0.707107 0.000000
v 0.831470 0.555570 0.000000
v 0.923880 0.382683 0.000000
v 0.980785 0.195090 0.000000
v 0.714896 -0.000000 0.000000
v 0.701160 -0.139469 0.000000
v 0.660478 -0.273579 0.000000
v 0.594414 -0.397175 0.000000
v 0.505508 -0.505508 0.000000
v 0.397175 -0.594414 0.000000
v 0.273579 -0.660478 0.000000
v 0.139469 -0.701160 0.000000
v 0.000000 -0.714896 0.000000
v -0.139469 -0.701160 0.000000
v -0.273579 -0.660478 0.000000
v -0.397175 -0.594414 0.000000
v -0.505508 -0.505508 0.000000
v -0.594414 -0.397175 0.000000
v -0.660478 -0.273579 0.000000
v -0.701160 -0.139469 0.000000
v -0.714896 -0.000000 0.000000
v -0.701160 0.139469 0.000000
v -0.660478 0.273579 0.000000
v -0.594414 0.397175 0.000000
v -0.505508 0.505508 0.000000
v -0.397175 0.594414 0.000000
v -0.273579 0.660478 0.000000
v -0.139469 0.701160 0.000000
v 0.000000 0.714896 0.000000
v 0.139469 0.701160 0.000000
v 0.273579 0.660478 0.000000
v 0.397175 0.594414 0.000000
v 0.505508 0.505508 0.000000
v 0.594414 0.397175 0.000000
v 0.660478 0.273579 0.000000
v 0.701160 0.139469 0.000000
vn -0.0000 -0.0000 1.0000
vt 0.888298 0.181332
vt 0.500000 0.500000
vt 0.818668 0.111702
vt 0.736791 0.056994
vt 0.645815 0.019311
vt 0.549236 0.000100
vt 0.450764 0.000100
vt 0.354185 0.019311
vt 0.263209 0.056994
vt 0.181332 0.111702
vt 0.111702 0.181332
vt 0.056994 0.263208
vt 0.019311 0.354184
vt 0.000100 0.450764
vt 0.000100 0.549236
vt 0.019311 0.645815
vt 0.056994 0.736791
vt 0.111702 0.818668
vt 0.181332 0.888298
vt 0.263208 0.943006
vt 0.354184 0.980689
vt 0.450764 0.999900
vt 0.549236 0.999900
vt 0.645815 0.980689
vt 0.736791 0.943006
vt 0.818668 0.888298
vt 0.888298 0.818668
vt 0.943006 0.736792
vt 0.980689 0.645816
vt 0.999900 0.549236
vt 0.999900 0.450764
vt 0.980689 0.354185
vt 0.943006 0.263209
vt 0.757954 0.288303
vt 0.711697 0.242047
vt 0.657305 0.205703
vt 0.596868 0.180669
vt 0.532708 0.167907
vt 0.467292 0.167907
vt 0.403132 0.180669
vt 0.342695 0.205703
vt 0.288303 0.242046
vt 0.242046 0.288303
vt 0.205703 0.342695
vt 0.180669 0.403132
vt 0.167907 0.467292
vt 0.167907 0.532708
vt 0.180669 0.596868
vt 0.205703 0.657305
vt 0.242046 0.711697
vt 0.288303 0.757954
vt 0.342695 0.794297
vt 0.403132 0.819331
vt 0.467292 0.832093
vt 0.532708 0.832093
vt 0.596868 0.819331
vt 0.657305 0.794297
vt 0.711697 0.757954
vt 0.757953 0.711697
vt 0.794297 0.657305
vt 0.819331 0.596868
vt 0.832093 0.532708
vt 0.832093 0.467292
vt 0.819331 0.403132
vt 0.794297 0.342695
s 0
f 34/34/1 2/2/1 35/35/1
f 35/35/1 2/2/1 36/36/1
f 36/36/1 2/2/1 37/37/1
f 37/37/1 2/2/1 38/38/1
f 38/38/1 2/2/1 39/39/1
f 39/39/1 2/2/1 40/40/1
f 40/40/1 2/2/1 41/41/1
f 41/41/1 2/2/1 42/42/1
f 42/42/1 2/2/1 43/43/1
f 43/43/1 2/2/1 44/44/1
f 44/44/1 2/2/1 45/45/1
f 45/45/1 2/2/1 46/46/1
f 46/46/1 2/2/1 47/47/1
f 47/47/1 2/2/1 48/48/1
f 48/48/1 2/2/1 49/49/1
f 49/49/1 2/2/1 50/50/1
f 50/50/1 2/2/1 51/51/1
f 51/51/1 2/2/1 52/52/1
f 52/52/1 2/2/1 53/53/1
f 53/53/1 2/2/1 54/54/1
f 54/54/1 2/2/1 55/55/1
f 55/55/1 2/2/1 56/56/1
f 56/56/1 2/2/1 57/57/1
f 57/57/1 2/2/1 58/58/1
f 58/58/1 2/2/1 59/59/1
f 59/59/1 2/2/1 60/60/1
f 60/60/1 2/2/1 61/61/1
f 61/61/1 2/2/1 62/62/1
f 62/62/1 2/2/1 63/63/1
f 63/63/1 2/2/1 64/64/1
f 64/64/1 2/2/1 65/65/1
f 65/65/1 2/2/1 34/34/1
f 33/33/1 65/65/1 34/34/1 1/1/1
f 32/32/1 64/64/1 65/65/1 33/33/1
f 31/31/1 63/63/1 64/64/1 32/32/1
f 30/30/1 62/62/1 63/63/1 31/31/1
f 29/29/1 61/61/1 62/62/1 30/30/1
f 28/28/1 60/60/1 61/61/1 29/29/1
f 27/27/1 59/59/1 60/60/1 28/28/1
f 26/26/1 58/58/1 59/59/1 27/27/1
f 25/25/1 57/57/1 58/58/1 26/26/1
f 24/24/1 56/56/1 57/57/1 25/25/1
f 23/23/1 55/55/1 56/56/1 24/24/1
f 22/22/1 54/54/1 55/55/1 23/23/1
f 21/21/1 53/53/1 54/54/1 22/22/1
f 20/20/1 52/52/1 53/53/1 21/21/1
f 19/19/1 51/51/1 52/52/1 20/20/1
f 18/18/1 50/50/1 51/51/1 19/19/1
f 17/17/1 49/49/1 50/50/1 18/18/1
f 16/16/1 48/48/1 49/49/1 17/17/1
f 15/15/1 47/47/1 48/48/1 16/16/1
f 14/14/1 46/46/1 47/47/1 15/15/1
f 13/13/1 45/45/1 46/46/1 14/14/1
f 12/12/1 44/44/1 45/45/1 13/13/1
f 11/11/1 43/43/1 44/44/1 12/12/1
f 10/10/1 42/42/1 43/43/1 11/11/1
f 9/9/1 41/41/1 42/42/1 10/10/1
f 8/8/1 40/40/1 41/41/1 9/9/1
f 7/7/1 39/39/1 40/40/1 8/8/1
f 6/6/1 38/38/1 39/39/1 7/7/1
f 5/5/1 37/37/1 38/38/1 6/6/1
f 4/4/1 36/36/1 37/37/1 5/5/1
f 3/3/1 35/35/1 36/36/1 4/4/1
f 1/1/1 34/34/1 35/35/1 3/3/1
