# Blender 3.6.0
# www.blender.org
o Sphere
v 0.544895 0.831470 0.108386
v 0.693520 0.707107 0.137950
v 0.815493 0.555570 0.162212
v 0.906127 0.382683 0.180240
v 0.513280 0.831470 0.212608
v 0.653281 0.707107 0.270598
v 0.768178 0.555570 0.318190
v 0.853553 0.382683 0.353553
v 0.461940 0.831470 0.308658
v 0.587938 0.707107 0.392847
v 0.691341 0.555570 0.461940
v 0.768178 0.382683 0.513280
v 0.392847 0.831470 0.392847
v 0.500000 0.707107 0.500000
v 0.587938 0.555570 0.587938
v 0.653281 0.382683 0.653281
vn 0.6812 0.7023 0.2066
vn 0.6088 0.7715 0.1847
vn 0.5861 0.7730 0.2428
vn 0.6561 0.7041 0.2718
vn 0.7986 0.5509 0.2423
vn 0.7699 0.5528 0.3189
vn 0.8448 0.4696 0.2563
vn 0.8148 0.4714 0.3375
vn 0.6929 0.5528 0.4630
vn 0.7333 0.4714 0.4900
vn 0.5275 0.7730 0.3524
vn 0.5905 0.7041 0.3945
vn 0.4918 0.7715 0.4036
vn 0.5503 0.7023 0.4516
vn 0.6451 0.5509 0.5294
vn 0.6825 0.4696 0.5601
vt 0.468750 0.750000
vt 0.468750 0.812500
vt 0.437500 0.812500
vt 0.437500 0.750000
vt 0.468750 0.687500
vt 0.437500 0.687500
vt 0.468750 0.625000
vt 0.437500 0.625000
vt 0.406250 0.687500
vt 0.406250 0.625000
vt 0.406250 0.812500
vt 0.406250 0.750000
vt 0.375000 0.812500
vt 0.375000 0.750000
vt 0.375000 0.687500
vt 0.375000 0.625000
s 1
f 2/1/1 1/2/2 5/3/3 6/4/4
f 3/5/5 2/1/1 6/4/4 7/6/6
f 4/7/7 3/5/5 7/6/6 8/8/8
f 8/8/8 7/6/6 11/9/9 12/10/10
f 6/4/4 5/3/3 9/11/11 10/12/12
f 7/6/6 6/4/4 10/12/12 11/9/9
f 10/12/12 9/11/11 13/13/13 14/14/14
f 11/9/9 10/12/12 14/14/14 15/15/15
f 12/10/10 11/9/9 15/15/15 16/16/16
